<?xml version="1.0" encoding="UTF-8" standalone="no"?>
<svg
   version="1.0"
   width="1280.000000pt"
   height="586.000000pt"
   viewBox="0 0 1280.000000 586.000000"
   preserveAspectRatio="xMidYMid meet"
   id="svg5"
   sodipodi:docname="staff.svg"
   inkscape:export-filename="1841206.svg"
   inkscape:export-xdpi="91.96875"
   inkscape:export-ydpi="91.96875"
   inkscape:version="1.3.2 (091e20e, 2023-11-25, custom)"
   xmlns:inkscape="http://www.inkscape.org/namespaces/inkscape"
   xmlns:sodipodi="http://sodipodi.sourceforge.net/DTD/sodipodi-0.dtd"
   xmlns:xlink="http://www.w3.org/1999/xlink"
   xmlns="http://www.w3.org/2000/svg"
   xmlns:svg="http://www.w3.org/2000/svg">
  <defs
     id="defs5">
    <linearGradient
       id="linearGradient194"
       inkscape:collect="always">
      <stop
         style="stop-color:#f97316;stop-opacity:1;"
         offset="0"
         id="stop193" />
      <stop
         style="stop-color:#f46806;stop-opacity:0.60000002;"
         offset="1"
         id="stop194" />
    </linearGradient>
    <linearGradient
       id="linearGradient191"
       inkscape:collect="always">
      <stop
         style="stop-color:#f97316;stop-opacity:1;"
         offset="0"
         id="stop190" />
      <stop
         style="stop-color:#f56905;stop-opacity:0.51999998;"
         offset="1"
         id="stop191" />
    </linearGradient>
    <linearGradient
       id="linearGradient189"
       inkscape:collect="always">
      <stop
         style="stop-color:#f97316;stop-opacity:1;"
         offset="0"
         id="stop188" />
      <stop
         style="stop-color:#f56e05;stop-opacity:0.80000001;"
         offset="1"
         id="stop189" />
    </linearGradient>
    <linearGradient
       id="linearGradient187"
       inkscape:collect="always">
      <stop
         style="stop-color:#f97316;stop-opacity:1;"
         offset="0"
         id="stop186" />
      <stop
         style="stop-color:#f26a06;stop-opacity:0.89999998;"
         offset="1"
         id="stop187" />
    </linearGradient>
    <linearGradient
       id="linearGradient101"
       inkscape:collect="always">
      <stop
         style="stop-color:#f97316;stop-opacity:1;"
         offset="0"
         id="stop101" />
      <stop
         style="stop-color:#f46806;stop-opacity:0.69999999;"
         offset="1"
         id="stop102" />
    </linearGradient>
    <linearGradient
       id="swatch96"
       inkscape:swatch="solid">
      <stop
         style="stop-color:#f97316;stop-opacity:1;"
         offset="0"
         id="stop96" />
    </linearGradient>
    <clipPath
       clipPathUnits="userSpaceOnUse"
       id="clipPath5">
      <path
         id="path36"
         style="stroke-width:0.1;stroke-linecap:square;paint-order:markers fill stroke;stop-color:#000000"
         d="m 438.25066,553.76374 859.87054,0 v 201.39554 l -859.87054,0 z"
         sodipodi:nodetypes="ccccc" />
    </clipPath>
    <linearGradient
       inkscape:collect="always"
       xlink:href="#linearGradient187"
       id="linearGradient188"
       x1="-0.5"
       y1="1604.381"
       x2="12798.892"
       y2="1604.381"
       gradientUnits="userSpaceOnUse"
       gradientTransform="matrix(1.4293595,0,0,0.88555059,0.65968664,100.77754)" />
    <linearGradient
       inkscape:collect="always"
       xlink:href="#linearGradient191"
       id="linearGradient192"
       x1="1.5315055"
       y1="3449.1094"
       x2="12800.496"
       y2="3449.1094"
       gradientUnits="userSpaceOnUse"
       gradientTransform="matrix(1.4293595,0,0,0.88555059,0.65968664,100.77754)" />
    <linearGradient
       inkscape:collect="always"
       xlink:href="#linearGradient194"
       id="linearGradient193"
       x1="-1.1788942"
       y1="2961.188"
       x2="12799.26"
       y2="2961.188"
       gradientUnits="userSpaceOnUse"
       gradientTransform="matrix(1.4293595,0,0,0.88555059,0.65968664,100.77754)" />
    <linearGradient
       inkscape:collect="always"
       xlink:href="#linearGradient101"
       id="linearGradient195"
       x1="-1.2817008"
       y1="2510.4021"
       x2="12799.098"
       y2="2510.4021"
       gradientUnits="userSpaceOnUse"
       gradientTransform="matrix(1.4293595,0,0,0.88555059,0.65968664,100.77754)" />
    <linearGradient
       inkscape:collect="always"
       xlink:href="#linearGradient189"
       id="linearGradient196"
       x1="-1.8923498"
       y1="2086.4097"
       x2="12800.5"
       y2="2086.4097"
       gradientUnits="userSpaceOnUse"
       gradientTransform="matrix(1.4293595,0,0,0.88555059,0.65968664,100.77754)" />
    <clipPath
       clipPathUnits="userSpaceOnUse"
       id="clipPath228">
      <rect
         style="fill:#000000;fill-opacity:1;stroke:#faf1d3;stroke-width:0.992123;stroke-linecap:round;stroke-linejoin:bevel;stroke-dasharray:none;stroke-opacity:0.792593;paint-order:fill markers stroke"
         id="rect229"
         width="14492.517"
         height="4426.8052"
         x="-617.17114"
         y="-3628.1284"
         transform="matrix(0.99639433,0.08484304,0.08484304,-0.99639433,0,0)" />
    </clipPath>
  </defs>
  <sodipodi:namedview
     id="namedview5"
     pagecolor="#ffffff"
     bordercolor="#000000"
     borderopacity="0.25"
     inkscape:showpageshadow="2"
     inkscape:pageopacity="0.0"
     inkscape:pagecheckerboard="0"
     inkscape:deskcolor="#d1d1d1"
     inkscape:document-units="pt"
     showgrid="false"
     inkscape:zoom="0.28462966"
     inkscape:cx="635.91406"
     inkscape:cy="384.71044"
     inkscape:window-width="1920"
     inkscape:window-height="1017"
     inkscape:window-x="1912"
     inkscape:window-y="-8"
     inkscape:window-maximized="1"
     inkscape:current-layer="g5" />
  <metadata
     id="metadata1">
Created by potrace 1.15, written by Peter Selinger 2001-2017
</metadata>
  <g
     transform="translate(0.000000,586.000000) scale(0.100000,-0.100000)"
     fill="#000000"
     stroke="none"
     id="g5">
    <g
       id="g228"
       transform="rotate(-4.8669993,-944.33814,5419.1255)"
       clip-path="url(#clipPath228)">
      <path
         d="M 16609.817,4766.7436 C 14823.117,4694.1284 12990.679,4356.7337 10920.966,3721.7939 10309.201,3534.9428 10014.753,3435.761 8826.9548,3018.6668 7693.4723,2621.0546 7436.1877,2534.2706 6890.1723,2365.1304 5662.3526,1984.3436 4590.3331,1759.4138 3423.9756,1638.0934 2457.7287,1537.1406 1387.1384,1535.3695 315.11878,1633.6656 4.9477652,1662.0032 -7.9164704,1662.8888 7.8064839,1652.2622 30.676236,1637.2078 603.84938,1585.8459 1072.6793,1556.6228 c 301.5948,-18.5967 1193.5152,-26.5666 1509.4036,-13.2833 1112.0417,47.8197 2208.3604,207.2188 3343.2718,487.9383 764.7074,188.6224 1409.3485,387.8712 2865.8655,885.5507 1400.7728,479.0828 2075.4298,689.8438 2894.4538,906.8037 1356.462,360.4192 2655.749,589.7767 3880.711,686.3017 507.422,40.7353 728.973,48.7053 1329.304,48.7053 577.461,0 843.323,-8.8555 1262.125,-42.5064 l 138.647,-10.6266 v 116.8927 117.7782 l -45.74,5.3134 c -228.697,23.0242 -1263.553,37.193 -1640.904,21.2531 z"
         id="path1"
         style="fill:url(#linearGradient192);fill-opacity:1;stroke:#000000;stroke-width:1.11621;stroke-dasharray:none;stroke-opacity:1" />
      <path
         d="M 15394.861,4005.1702 C 14082.709,3954.6937 12671.931,3745.7038 11221.132,3386.1703 10549.333,3219.6867 10220.58,3124.0473 8681.1601,2648.5066 6978.7927,2122.4896 6512.8214,1994.0846 5682.3637,1822.2879 3815.6202,1437.0734 2160.4218,1361.8017 233.64529,1575.2193 125.01396,1587.617 27.817517,1597.358 19.24136,1597.358 c -35.733987,0 -18.58167337,-15.9399 20.011032,-20.3676 22.869752,-1.7711 165.805698,-18.5967 318.747158,-35.422 300.1655,-33.6509 698.95675,-67.3019 1100.60675,-92.0973 360.1986,-22.1388 1397.9137,-22.1388 1765.2591,0 1009.1277,61.9885 1962.5105,196.5922 2923.0401,413.5521 728.9733,164.7124 1227.8198,301.9728 2529.9663,695.1573 1076.3079,325.8826 1482.2462,442.7752 1979.6632,571.1801 1546.566,399.3832 2973.067,620.771 4395.28,681.8739 268.72,11.5121 1077.737,11.5121 1343.598,0 514.57,-23.0242 1099.177,-76.1573 1579.442,-145.2303 150.083,-21.2532 283.013,-41.6208 297.306,-45.1631 22.87,-6.1988 24.3,1.7712 21.441,116.0072 l -4.288,123.0915 -221.55,28.3377 c -441.673,56.6752 -956.242,99.1816 -1415.067,117.7781 -265.861,9.7412 -986.257,9.7412 -1257.836,-0.8854 z"
         id="path2"
         style="fill:url(#linearGradient193);fill-opacity:1;stroke:#000000;stroke-width:1.12506;stroke-opacity:1" />
      <path
         d="M 14444.337,3327.724 C 12910.634,3278.1331 11476.987,3062.0587 9808.9246,2629.9101 9614.5319,2579.4336 9262.9093,2485.5653 9027.0648,2420.92 7419.0353,1981.687 6981.6513,1870.9932 6352.7332,1740.8172 5073.4565,1475.1521 3889.9468,1348.5184 2680.7087,1345.8616 c -777.5716,-0.8855 -1613.7468,54.0187 -2419.90559,159.3991 -128.64235,16.8256 -240.13239,30.1088 -247.279188,30.1088 -27.157831,0 -11.4348759,-15.9399 18.581672,-19.4821 18.581674,-2.6567 138.647866,-18.5965 268.719586,-36.3076 413.08489,-55.7896 996.26352,-111.5794 1529.41462,-145.2303 360.1986,-22.1388 1465.0935,-22.1388 1836.727,0 1122.0472,69.0729 2026.8317,195.7067 3180.3248,446.3175 371.6335,80.5851 886.2029,208.9899 1772.4056,441.0041 1200.6619,314.3706 1676.6388,430.3777 2229.8008,542.8426 1003.411,203.6767 1895.331,317.9127 2930.187,375.4735 324.465,17.7111 1385.049,15.0543 1700.937,-4.4277 947.665,-59.3319 1745.249,-172.6824 2612.87,-370.1602 105.773,-23.9099 194.392,-43.3919 197.251,-43.3919 4.288,0 4.288,54.904 2.859,121.3203 l -4.288,121.3204 -314.459,63.7597 c -730.403,147.887 -1452.229,238.2131 -2251.241,282.4906 -235.845,13.2833 -1056.296,23.9099 -1279.277,16.8256 z"
         id="path3"
         style="fill:url(#linearGradient195);fill-opacity:1;stroke:#000000;stroke-width:1.12506;stroke-opacity:1" />
      <path
         d="m 13129.326,2704.2963 c -983.399,-43.392 -1942.499,-162.0558 -2937.333,-364.8468 C 9730.31,2245.581 9490.1772,2191.5625 8576.8165,1979.9159 7384.7307,1702.7386 6885.8843,1597.358 6309.8524,1499.9474 5459.3835,1356.4883 4678.9533,1274.1321 3795.6091,1233.3968 c -350.193,-16.8255 -1187.7977,-14.1689 -1515.1211,4.4277 -730.4026,40.7354 -1415.06583,108.0371 -2063.99503,205.4477 -187.246094,27.4521 -237.273677,30.9943 -211.5452048,15.94 28.5871898,-17.711 758.9898948,-116.8927 1232.1078348,-167.3691 754.7019,-79.6995 1220.6731,-104.4949 1951.0757,-105.3805 1246.4016,0 2357.0138,105.3805 3714.9054,353.3347 381.6389,69.9585 850.4688,168.2545 1666.6328,349.7924 1001.9817,223.1588 1413.6368,309.0572 1858.1675,387.8713 1825.292,325.8825 3581.975,368.3889 5288.63,129.2903 751.844,-106.266 1578.013,-290.4605 2311.275,-518.047 140.076,-43.3921 257.283,-78.8142 261.572,-78.8142 4.288,0 7.147,54.9043 7.147,122.2061 v 123.0915 l -38.593,11.5121 c -1260.695,363.9614 -2298.41,547.2703 -3549.099,625.1987 -270.149,16.8256 -1295,24.7955 -1579.443,12.3978 z"
         id="path4"
         style="fill:url(#linearGradient196);fill-opacity:1;stroke:#000000;stroke-width:1.12506;stroke-opacity:1" />
      <path
         d="m 12407.5,2157.9116 c -397.362,-9.7411 -894.779,-42.5065 -1282.135,-83.2418 -674.658,-69.9585 -1216.3858,-157.628 -2505.6678,-406.4677 -1325.0161,-255.0386 -1810.9983,-337.3948 -2479.9386,-420.6365 -594.6135,-73.5007 -1092.0306,-116.0072 -1715.2313,-147.887 -307.3124,-15.0544 -1396.4843,-15.0544 -1700.9377,0 -793.2946,40.7353 -1693.7911,139.9169 -2539.9719,278.9484 -121.495556,20.3676 -182.95801337,26.5666 -182.95801337,20.3676 0,-13.2832 443.10144337,-87.6694 871.90932337,-147.0013 C 1974.6051,1099.6786 2715.0133,1045.66 3709.8475,1045.66 c 936.2305,0 1792.4168,55.7897 2720.0712,175.3391 604.619,77.9284 1100.6065,159.3991 2239.8062,367.5035 670.3693,122.2059 1123.477,199.2488 1513.6921,255.924 1783.841,261.2375 3470.485,232.8999 5171.423,-86.7839 897.638,-169.1401 1903.906,-464.0284 2767.24,-812.04989 88.619,-36.30757 164.375,-65.53075 168.663,-65.53075 2.859,0 4.288,56.67524 2.859,125.74824 l -4.288,124.8626 -110.06,42.5064 c -493.13,191.2789 -1203.522,413.5521 -1779.554,556.1258 -1269.271,314.3705 -2665.755,464.0285 -3992.2,428.6065 z"
         id="path5"
         style="fill:url(#linearGradient188);fill-opacity:1;stroke:#000000;stroke-width:1.12506;stroke-opacity:1" />
    </g>
  </g>
</svg>
